<svg xmlns="http://www.w3.org/2000/svg" xmlns:xlink="http://www.w3.org/1999/xlink" width="1200" zoomAndPan="magnify" viewBox="0 0 900 374.999991" height="500" preserveAspectRatio="xMidYMid meet" version="1.0"><defs><g/><clipPath id="da5053b64e"><path d="M 7.160156 132 L 42 132 L 42 169 L 7.160156 169 Z M 7.160156 132 " clip-rule="nonzero"/></clipPath><clipPath id="a915120d73"><path d="M 238 140 L 265.910156 140 L 265.910156 169 L 238 169 Z M 238 140 " clip-rule="nonzero"/></clipPath><clipPath id="f03c3cb21a"><path d="M 122 48.808594 L 152 48.808594 L 152 97 L 122 97 Z M 122 48.808594 " clip-rule="nonzero"/></clipPath><clipPath id="96fb336164"><path d="M 9 179 L 279 179 L 279 326.464844 L 9 326.464844 Z M 9 179 " clip-rule="nonzero"/></clipPath><clipPath id="2d3a4aeefe"><rect x="0" width="593" y="0" height="159"/></clipPath></defs><path fill="#2e9841" d="M 51.65625 156.988281 C 54.859375 161.429688 57.90625 166.023438 61.878906 169.84375 C 63.480469 171.441406 65.90625 170.925781 67.96875 171.132812 C 81.703125 171.03125 95.382812 171.082031 109.113281 171.03125 C 113.65625 171.082031 118.148438 171.082031 122.6875 170.976562 C 119.332031 166.230469 116.03125 161.480469 112.675781 156.78125 C 98.066406 136.496094 84.078125 115.742188 69.210938 95.714844 C 72.71875 98.242188 75.09375 101.910156 77.832031 105.261719 C 90.789062 121.371094 103.898438 137.320312 116.855469 153.425781 C 121.605469 159.257812 126.304688 165.09375 131.050781 170.976562 C 133.273438 171.082031 135.441406 171.183594 137.660156 171.289062 C 136.886719 160.859375 137.710938 150.019531 142.511719 140.574219 C 143.90625 137.21875 147.003906 133.914062 145.402344 130.144531 C 140.394531 113.730469 129.347656 99.738281 116.238281 88.953125 C 100.75 75.941406 82.21875 67.320312 63.222656 60.972656 C 62.910156 60.871094 62.292969 60.714844 61.929688 60.609375 C 52.691406 58.496094 43.398438 56.378906 33.898438 55.5 C 31.886719 67.011719 31.007812 78.730469 31.371094 90.398438 C 33.125 113.679688 38.855469 137.164062 51.65625 156.988281 Z M 51.65625 156.988281 " fill-opacity="1" fill-rule="nonzero"/><path fill="#2e9841" d="M 162.230469 87.09375 C 156.242188 96.074219 149.894531 104.851562 143.855469 113.832031 C 144.835938 115.792969 145.765625 117.757812 146.691406 119.769531 C 147.933594 122.710938 149.015625 125.707031 150.046875 128.75 C 154.796875 123.125 160.578125 118.632812 166.15625 113.9375 C 170.234375 108.15625 171.421875 100.875 174.621094 94.628906 C 176.890625 88.847656 184.738281 90.601562 188.453125 86.320312 C 195.578125 79.917969 194.289062 68.25 187.472656 62.160156 C 185.824219 61.386719 184.171875 60.558594 182.519531 59.785156 C 173.898438 57.152344 163.832031 62.777344 162.335938 71.8125 C 160.890625 76.921875 165.535156 82.394531 162.230469 87.09375 Z M 162.230469 87.09375 " fill-opacity="1" fill-rule="nonzero"/><path fill="#2e9841" d="M 146.539062 144.597656 C 143.027344 152.960938 142.097656 162.304688 143.75 171.234375 C 150.875 170.308594 159.597656 173.300781 165.070312 167.3125 C 182.984375 151.363281 201.722656 136.441406 219.53125 120.335938 C 218.707031 121.421875 217.878906 122.558594 217.105469 123.640625 C 209.722656 130.558594 202.804688 137.835938 195.683594 144.960938 C 187.269531 153.53125 178.335938 161.632812 170.644531 170.875 C 173.019531 170.976562 175.445312 171.03125 177.871094 171.03125 C 191.398438 170.769531 204.972656 171.597656 218.445312 170.71875 C 223.609375 165.300781 227.121094 158.535156 230.628906 151.980469 C 238.425781 135.515625 241.726562 117.1875 241.367188 99.015625 C 218.5 98.242188 195.113281 103.25 175.136719 114.660156 C 163.109375 121.730469 151.855469 131.4375 146.539062 144.597656 Z M 146.539062 144.597656 " fill-opacity="1" fill-rule="nonzero"/><g clip-path="url(#da5053b64e)"><path fill="#2e9841" d="M 22.027344 148.472656 C 28.066406 153.941406 33.539062 160.035156 39.628906 165.507812 C 39.941406 164.730469 40.609375 163.234375 40.972656 162.511719 C 41.539062 157.039062 41.59375 151 37.976562 146.40625 C 31.007812 136.753906 18.671875 133.347656 7.367188 132.46875 C 7.160156 140.261719 8.140625 148.160156 11.496094 155.234375 C 14.4375 160.707031 18.773438 165.96875 24.96875 167.777344 C 28.945312 169.171875 33.175781 168.242188 37.253906 167.726562 C 32.402344 161.117188 26.929688 155.027344 22.027344 148.472656 Z M 22.027344 148.472656 " fill-opacity="1" fill-rule="nonzero"/></g><g clip-path="url(#a915120d73)"><path fill="#2e9841" d="M 265.472656 140.003906 C 256.542969 140.675781 246.789062 143.359375 241.265625 151 C 238.425781 154.613281 238.425781 159.414062 238.890625 163.75 C 239.148438 164.371094 239.664062 165.558594 239.921875 166.125 C 244.722656 161.789062 249.058594 156.9375 253.859375 152.601562 C 249.988281 157.8125 245.652344 162.667969 241.78125 167.878906 C 244.980469 168.292969 248.335938 169.015625 251.484375 167.933594 C 256.390625 166.488281 259.796875 162.304688 262.117188 158.019531 C 264.855469 152.394531 265.628906 146.148438 265.472656 140.003906 Z M 265.472656 140.003906 " fill-opacity="1" fill-rule="nonzero"/></g><g clip-path="url(#f03c3cb21a)"><path fill="#2e9841" d="M 139.054688 96.796875 C 138.332031 88.230469 136.78125 79.761719 136.058594 71.195312 C 138.484375 79.402344 139.984375 87.867188 142.410156 96.125 C 143.132812 95.660156 144.523438 94.628906 145.246094 94.164062 C 148.757812 89.570312 152.113281 84.203125 151.441406 78.109375 C 150.566406 65.671875 141.375 55.863281 131.773438 48.894531 C 127.335938 55.707031 123.824219 63.296875 122.949219 71.503906 C 122.585938 78.007812 123.515625 85.078125 128.058594 90.085938 C 130.84375 93.492188 135.128906 95.042969 139.054688 96.796875 Z M 139.054688 96.796875 " fill-opacity="1" fill-rule="nonzero"/></g><path fill="#2e9841" d="M 202.03125 94.113281 C 205.644531 88.953125 208.691406 83.429688 212.304688 78.265625 C 209.828125 84.046875 206.730469 89.519531 204.25 95.25 C 204.871094 95.300781 206.160156 95.402344 206.78125 95.457031 C 210.910156 94.527344 215.296875 93.03125 217.722656 89.3125 C 223.042969 81.878906 222.421875 72.070312 220.304688 63.65625 C 214.628906 65.410156 209.105469 68.097656 204.765625 72.277344 C 201.515625 75.789062 198.78125 80.226562 198.984375 85.132812 C 198.933594 88.433594 200.636719 91.273438 202.03125 94.113281 Z M 202.03125 94.113281 " fill-opacity="1" fill-rule="nonzero"/><g clip-path="url(#96fb336164)"><path fill="#242424" d="M 263.261719 179.984375 C 252.652344 179.675781 242.042969 180.046875 231.433594 179.921875 C 162.824219 179.984375 94.148438 179.863281 25.535156 179.984375 C 17.53125 179.242188 9.035156 185.257812 9.28125 193.757812 C 9.34375 235.878906 31.304688 276.636719 65.425781 301.082031 C 76.53125 308.835938 88.6875 315.164062 101.65625 319.320312 C 103.019531 319.753906 105.75 320.621094 107.113281 321.058594 C 109.78125 321.800781 112.511719 322.609375 115.242188 323.226562 C 124.546875 324.71875 133.914062 325.832031 143.34375 326.082031 C 172.003906 326.019531 200.601562 316.898438 223.617188 299.714844 C 253.023438 278.191406 273 244.316406 277.21875 208.089844 C 278.085938 199.773438 279.886719 190.40625 274.117188 183.398438 C 270.765625 181.597656 267.167969 179.984375 263.261719 179.984375 Z M 238.011719 233.769531 C 229.636719 252.445312 215.492188 268.449219 198.183594 279.242188 C 179.136719 291.21875 156.246094 295.992188 133.914062 294.566406 C 128.578125 293.574219 123.242188 292.644531 117.96875 291.402344 C 90.238281 284.515625 66.046875 265.347656 52.582031 240.222656 C 49.605469 234.640625 46.132812 228.1875 48.304688 221.675781 C 50.226562 214.972656 57.238281 211.003906 63.9375 211.3125 C 114.496094 211.191406 164.996094 211.375 215.554688 211.253906 C 222.066406 211.375 229.699219 210.382812 234.910156 215.160156 C 240.304688 219.6875 241.175781 227.753906 238.011719 233.769531 Z M 238.011719 233.769531 " fill-opacity="1" fill-rule="nonzero"/></g><g transform="matrix(1, 0, 0, 1, 307, 111)"><g clip-path="url(#2d3a4aeefe)"><g fill="#05a019" fill-opacity="1"><g transform="translate(2.038033, 125.327534)"><g><path d="M 51.890625 2.328125 C 43.015625 2.328125 35.195312 0.722656 28.4375 -2.484375 C 21.675781 -5.703125 16.378906 -10.304688 12.546875 -16.296875 C 8.722656 -22.285156 6.8125 -29.4375 6.8125 -37.75 L 32.265625 -37.75 C 32.265625 -32.09375 34.226562 -27.90625 38.15625 -25.1875 C 42.09375 -22.476562 46.613281 -21.125 51.71875 -21.125 C 54.9375 -21.125 57.957031 -21.648438 60.78125 -22.703125 C 63.601562 -23.753906 65.929688 -25.304688 67.765625 -27.359375 C 69.597656 -29.410156 70.515625 -31.875 70.515625 -34.75 C 70.515625 -37.75 69.457031 -40.109375 67.34375 -41.828125 C 65.238281 -43.546875 62.410156 -44.957031 58.859375 -46.0625 C 55.316406 -47.175781 51.441406 -48.226562 47.234375 -49.21875 C 42.910156 -50.21875 38.472656 -51.4375 33.921875 -52.875 C 29.378906 -54.320312 25.164062 -56.234375 21.28125 -58.609375 C 17.40625 -60.992188 14.300781 -64.207031 11.96875 -68.25 C 9.644531 -72.300781 8.484375 -77.429688 8.484375 -83.640625 C 8.484375 -94.835938 12.28125 -103.457031 19.875 -109.5 C 27.46875 -115.539062 37.75 -118.5625 50.71875 -118.5625 C 64.019531 -118.5625 74.328125 -115.207031 81.640625 -108.5 C 88.960938 -101.800781 92.625 -92.6875 92.625 -81.15625 L 67.6875 -81.15625 C 67.6875 -86.144531 65.910156 -89.828125 62.359375 -92.203125 C 58.816406 -94.585938 54.71875 -95.78125 50.0625 -95.78125 C 45.957031 -95.78125 42.1875 -94.894531 38.75 -93.125 C 35.3125 -91.351562 33.59375 -88.582031 33.59375 -84.8125 C 33.59375 -82.039062 34.617188 -79.847656 36.671875 -78.234375 C 38.722656 -76.628906 41.4375 -75.300781 44.8125 -74.25 C 48.195312 -73.195312 51.941406 -72.171875 56.046875 -71.171875 C 60.472656 -70.066406 65.015625 -68.765625 69.671875 -67.265625 C 74.328125 -65.765625 78.648438 -63.738281 82.640625 -61.1875 C 86.640625 -58.644531 89.882812 -55.265625 92.375 -51.046875 C 94.875 -46.835938 96.125 -41.519531 96.125 -35.09375 C 96.125 -26.664062 94.097656 -19.679688 90.046875 -14.140625 C 86.003906 -8.597656 80.65625 -4.46875 74 -1.75 C 67.351562 0.96875 59.984375 2.328125 51.890625 2.328125 Z M 51.890625 2.328125 "/></g></g></g><g fill="#05a019" fill-opacity="1"><g transform="translate(95.471193, 125.327534)"><g><path d="M 84.984375 -89.96875 L 103.109375 -89.96875 L 103.109375 -0.171875 L 83.984375 -0.171875 L 81.984375 -8.15625 C 78.097656 -4.820312 73.6875 -2.210938 68.75 -0.328125 C 63.820312 1.554688 58.53125 2.5 52.875 2.5 C 43.894531 2.5 35.859375 0.421875 28.765625 -3.734375 C 21.671875 -7.898438 16.070312 -13.554688 11.96875 -20.703125 C 7.875 -27.859375 5.828125 -35.976562 5.828125 -45.0625 C 5.828125 -54.039062 7.875 -62.101562 11.96875 -69.25 C 16.070312 -76.40625 21.671875 -82.035156 28.765625 -86.140625 C 35.859375 -90.242188 43.894531 -92.296875 52.875 -92.296875 C 58.644531 -92.296875 64.023438 -91.320312 69.015625 -89.375 C 74.003906 -87.4375 78.4375 -84.75 82.3125 -81.3125 Z M 54.875 -20.453125 C 59.53125 -20.453125 63.710938 -21.503906 67.421875 -23.609375 C 71.140625 -25.722656 74.050781 -28.632812 76.15625 -32.34375 C 78.269531 -36.0625 79.328125 -40.300781 79.328125 -45.0625 C 79.328125 -49.71875 78.269531 -53.898438 76.15625 -57.609375 C 74.050781 -61.328125 71.140625 -64.265625 67.421875 -66.421875 C 63.710938 -68.585938 59.53125 -69.671875 54.875 -69.671875 C 50.113281 -69.671875 45.898438 -68.585938 42.234375 -66.421875 C 38.578125 -64.265625 35.695312 -61.328125 33.59375 -57.609375 C 31.488281 -53.898438 30.4375 -49.71875 30.4375 -45.0625 C 30.4375 -40.300781 31.488281 -36.085938 33.59375 -32.421875 C 35.695312 -28.765625 38.578125 -25.851562 42.234375 -23.6875 C 45.898438 -21.53125 50.113281 -20.453125 54.875 -20.453125 Z M 54.875 -20.453125 "/></g></g></g><g fill="#05a019" fill-opacity="1"><g transform="translate(200.708623, 125.327534)"><g><path d="M 11.640625 0 L 11.640625 -122.234375 L 35.921875 -122.234375 L 35.921875 0 Z M 11.640625 0 "/></g></g></g><g fill="#05a019" fill-opacity="1"><g transform="translate(238.778294, 125.327534)"><g><path d="M 84.984375 -89.96875 L 103.109375 -89.96875 L 103.109375 -0.171875 L 83.984375 -0.171875 L 81.984375 -8.15625 C 78.097656 -4.820312 73.6875 -2.210938 68.75 -0.328125 C 63.820312 1.554688 58.53125 2.5 52.875 2.5 C 43.894531 2.5 35.859375 0.421875 28.765625 -3.734375 C 21.671875 -7.898438 16.070312 -13.554688 11.96875 -20.703125 C 7.875 -27.859375 5.828125 -35.976562 5.828125 -45.0625 C 5.828125 -54.039062 7.875 -62.101562 11.96875 -69.25 C 16.070312 -76.40625 21.671875 -82.035156 28.765625 -86.140625 C 35.859375 -90.242188 43.894531 -92.296875 52.875 -92.296875 C 58.644531 -92.296875 64.023438 -91.320312 69.015625 -89.375 C 74.003906 -87.4375 78.4375 -84.75 82.3125 -81.3125 Z M 54.875 -20.453125 C 59.53125 -20.453125 63.710938 -21.503906 67.421875 -23.609375 C 71.140625 -25.722656 74.050781 -28.632812 76.15625 -32.34375 C 78.269531 -36.0625 79.328125 -40.300781 79.328125 -45.0625 C 79.328125 -49.71875 78.269531 -53.898438 76.15625 -57.609375 C 74.050781 -61.328125 71.140625 -64.265625 67.421875 -66.421875 C 63.710938 -68.585938 59.53125 -69.671875 54.875 -69.671875 C 50.113281 -69.671875 45.898438 -68.585938 42.234375 -66.421875 C 38.578125 -64.265625 35.695312 -61.328125 33.59375 -57.609375 C 31.488281 -53.898438 30.4375 -49.71875 30.4375 -45.0625 C 30.4375 -40.300781 31.488281 -36.085938 33.59375 -32.421875 C 35.695312 -28.765625 38.578125 -25.851562 42.234375 -23.6875 C 45.898438 -21.53125 50.113281 -20.453125 54.875 -20.453125 Z M 54.875 -20.453125 "/></g></g></g><g fill="#05a019" fill-opacity="1"><g transform="translate(344.015725, 125.327534)"><g><path d="M 77.65625 -122.234375 L 101.9375 -122.234375 L 101.9375 0 L 83.984375 0 L 81.15625 -7.484375 C 77.382812 -4.265625 73.113281 -1.769531 68.34375 0 C 63.582031 1.769531 58.484375 2.65625 53.046875 2.65625 C 43.953125 2.65625 35.828125 0.578125 28.671875 -3.578125 C 21.523438 -7.734375 15.929688 -13.382812 11.890625 -20.53125 C 7.847656 -27.6875 5.828125 -35.8125 5.828125 -44.90625 C 5.828125 -53.988281 7.847656 -62.101562 11.890625 -69.25 C 15.929688 -76.40625 21.523438 -82.035156 28.671875 -86.140625 C 35.828125 -90.242188 43.953125 -92.296875 53.046875 -92.296875 C 57.585938 -92.296875 61.9375 -91.65625 66.09375 -90.375 C 70.257812 -89.101562 74.113281 -87.304688 77.65625 -84.984375 Z M 54.875 -20.28125 C 59.644531 -20.28125 63.859375 -21.363281 67.515625 -23.53125 C 71.171875 -25.695312 74.078125 -28.632812 76.234375 -32.34375 C 78.398438 -36.0625 79.484375 -40.25 79.484375 -44.90625 C 79.484375 -49.5625 78.398438 -53.742188 76.234375 -57.453125 C 74.078125 -61.171875 71.171875 -64.109375 67.515625 -66.265625 C 63.859375 -68.429688 59.644531 -69.515625 54.875 -69.515625 C 50.21875 -69.515625 46.0625 -68.429688 42.40625 -66.265625 C 38.75 -64.109375 35.835938 -61.171875 33.671875 -57.453125 C 31.515625 -53.742188 30.4375 -49.5625 30.4375 -44.90625 C 30.4375 -40.25 31.515625 -36.0625 33.671875 -32.34375 C 35.835938 -28.632812 38.75 -25.695312 42.40625 -23.53125 C 46.0625 -21.363281 50.21875 -20.28125 54.875 -20.28125 Z M 54.875 -20.28125 "/></g></g></g><g fill="#05a019" fill-opacity="1"><g transform="translate(448.089317, 125.327534)"><g><path d="M 11.640625 0 L 11.640625 -122.234375 L 35.921875 -122.234375 L 35.921875 0 Z M 11.640625 0 "/></g></g></g><g fill="#05a019" fill-opacity="1"><g transform="translate(486.158988, 125.327534)"><g><path d="M 73.671875 -89.796875 L 99.609375 -89.796875 L 60.359375 -1.171875 C 56.816406 6.921875 53.210938 13.4375 49.546875 18.375 C 45.890625 23.3125 41.734375 26.882812 37.078125 29.09375 C 32.421875 31.3125 26.710938 32.421875 19.953125 32.421875 L 9.984375 32.421875 L 9.984375 10.484375 L 18.453125 10.484375 C 22.335938 10.484375 25.414062 10.035156 27.6875 9.140625 C 29.957031 8.253906 31.894531 6.617188 33.5 4.234375 C 35.113281 1.859375 36.863281 -1.601562 38.75 -6.15625 L 39.078125 -6.8125 L 1 -89.796875 L 27.4375 -89.796875 L 51.390625 -34.59375 Z M 73.671875 -89.796875 "/></g></g></g></g></g></svg>